<svg width="760" height="330" viewBox="0 0 760 330" xmlns="http://www.w3.org/2000/svg">
  <rect x="20" y="20" width="200" height="60" fill="#e8e6e3" rx="8"/>
  <text x="120" y="55" text-anchor="middle" font-family="Montserrat" font-size="14">Game Build</text>

  <line x1="220" y1="50" x2="320" y2="50" stroke="#555" stroke-width="2" />
  <polygon points="320,50 310,45 310,55" fill="#555"/>

  <rect x="320" y="20" width="200" height="60" fill="#e8e6e3" rx="8"/>
  <text x="420" y="55" text-anchor="middle" font-family="Montserrat" font-size="14">Platform Integration</text>

  <line x1="520" y1="50" x2="620" y2="50" stroke="#555" stroke-width="2" />
  <polygon points="620,50 610,45 610,55" fill="#555"/>

  <rect x="620" y="20" width="120" height="60" fill="#e8e6e3" rx="8"/>
  <text x="680" y="55" text-anchor="middle" font-family="Montserrat" font-size="14">Deployment</text>

  <!-- Bottom row -->
  <rect x="20" y="140" width="200" height="60" fill="#e8e6e3" rx="8"/>
  <text x="120" y="175" text-anchor="middle" font-family="Montserrat" font-size="14">Testing &amp; QA</text>

  <rect x="320" y="140" width="200" height="60" fill="#e8e6e3" rx="8"/>
  <text x="420" y="175" text-anchor="middle" font-family="Montserrat" font-size="14">Performance Fixes</text>

  <rect x="620" y="140" width="120" height="60" fill="#e8e6e3" rx="8"/>
  <text x="680" y="175" text-anchor="middle" font-family="Montserrat" font-size="14">Launch</text>

  <line x1="120" y1="80" x2="120" y2="140" stroke="#555" stroke-width="2"/>
  <line x1="420" y1="80" x2="420" y2="140" stroke="#555" stroke-width="2"/>
  <line x1="680" y1="80" x2="680" y2="140" stroke="#555" stroke-width="2"/>
</svg>
